#define miku_wow_width 100
#define miku_wow_height 100
static char miku_wow_bits[] = {
   0x00, 0x00, 0x00, 0x00, 0x00, 0x00, 0x00, 0x00, 0x00, 0x00, 0x00, 0x00,
   0x00, 0x00, 0x00, 0x00, 0x00, 0x00, 0x00, 0x00, 0x00, 0x00, 0x00, 0x00,
   0x00, 0x00, 0x00, 0x00, 0x00, 0x00, 0x00, 0x03, 0x00, 0x00, 0x01, 0x00,
   0x00, 0x00, 0x00, 0x00, 0x00, 0x00, 0x00, 0x80, 0x0f, 0x00, 0xc0, 0x07,
   0x00, 0x00, 0x00, 0x00, 0x00, 0x00, 0x00, 0x00, 0x40, 0x1d, 0x00, 0x40,
   0x0e, 0x00, 0x00, 0x00, 0x00, 0x00, 0x00, 0x00, 0x00, 0xe0, 0x53, 0x55,
   0x51, 0x1c, 0x00, 0x00, 0x00, 0x00, 0x00, 0x00, 0x00, 0x00, 0xe0, 0x0a,
   0x00, 0xba, 0x3a, 0x00, 0x00, 0x00, 0x00, 0x00, 0x00, 0x00, 0x00, 0x50,
   0x50, 0x55, 0xb4, 0x71, 0x00, 0x00, 0x00, 0x00, 0x00, 0x00, 0x00, 0x00,
   0x04, 0x05, 0x80, 0x4e, 0x75, 0x00, 0x00, 0x00, 0x00, 0x00, 0x00, 0x00,
   0x00, 0x48, 0xa8, 0x2a, 0xdc, 0x62, 0x00, 0x00, 0x00, 0x00, 0x00, 0x00,
   0x00, 0x00, 0x10, 0x41, 0x89, 0x78, 0xc4, 0x00, 0x00, 0x00, 0x00, 0x00,
   0x00, 0x00, 0x00, 0x54, 0xc8, 0x10, 0xf0, 0x84, 0x00, 0x00, 0x00, 0x00,
   0x00, 0x00, 0x00, 0x00, 0x15, 0x21, 0x24, 0xe5, 0x81, 0x01, 0x00, 0x00,
   0x00, 0x00, 0x00, 0x00, 0x00, 0x5b, 0x8e, 0x48, 0xe8, 0x0b, 0x01, 0x00,
   0x00, 0x00, 0x00, 0x00, 0x00, 0x80, 0x85, 0x82, 0x8a, 0xc1, 0x01, 0x01,
   0x00, 0x00, 0x00, 0x00, 0x00, 0x00, 0xa0, 0x2b, 0x03, 0x09, 0x8b, 0x17,
   0x02, 0x00, 0x00, 0x00, 0x00, 0x00, 0x00, 0xc0, 0xc5, 0x80, 0x04, 0x02,
   0x23, 0x02, 0x00, 0x00, 0x00, 0x00, 0x00, 0x00, 0x60, 0xd5, 0x80, 0x0d,
   0x56, 0x46, 0x04, 0x00, 0x00, 0x00, 0x00, 0x00, 0x00, 0x50, 0x35, 0x00,
   0x04, 0x04, 0x13, 0x04, 0x00, 0x00, 0x00, 0x00, 0x00, 0x00, 0x50, 0x15,
   0x00, 0x0d, 0x2c, 0xa6, 0x08, 0x00, 0x00, 0x00, 0x00, 0x00, 0x00, 0xc0,
   0x1a, 0x00, 0x05, 0x58, 0x16, 0x09, 0x00, 0x00, 0x00, 0x00, 0x00, 0x00,
   0x90, 0x0a, 0x00, 0x0c, 0x58, 0x2e, 0x09, 0x00, 0x00, 0x00, 0x00, 0x00,
   0x00, 0xe0, 0xe7, 0x07, 0xe6, 0x17, 0x85, 0x10, 0x00, 0x00, 0x00, 0x00,
   0x00, 0x00, 0x80, 0xe6, 0x0f, 0xec, 0x77, 0x3e, 0x12, 0x00, 0x00, 0x00,
   0x00, 0x00, 0x00, 0xe8, 0xc7, 0x0f, 0xe8, 0x17, 0x8f, 0x34, 0x00, 0x00,
   0x00, 0x00, 0x00, 0x00, 0xd0, 0x0e, 0x0f, 0x90, 0x77, 0x3e, 0x21, 0x00,
   0x00, 0x00, 0x00, 0x00, 0x00, 0xf4, 0x03, 0x0f, 0xa0, 0x27, 0xbf, 0x22,
   0x00, 0x00, 0x00, 0x00, 0x00, 0x00, 0xa0, 0x03, 0x0f, 0x80, 0x63, 0x3e,
   0x64, 0x00, 0x00, 0x00, 0x00, 0x00, 0x00, 0xf4, 0x03, 0x00, 0x00, 0xe0,
   0x7f, 0x45, 0x00, 0x00, 0x00, 0x00, 0x00, 0x00, 0xb8, 0x03, 0x00, 0x00,
   0x40, 0x7f, 0x94, 0x00, 0x00, 0x00, 0x00, 0x00, 0x00, 0xf5, 0x03, 0x00,
   0x00, 0xe0, 0x7f, 0xa1, 0x00, 0x00, 0x00, 0x00, 0x00, 0x00, 0x78, 0x03,
   0x00, 0x00, 0xe0, 0x7f, 0xa6, 0x00, 0x00, 0x00, 0x00, 0x00, 0x00, 0xed,
   0x01, 0x00, 0x00, 0xe0, 0xff, 0xc4, 0x01, 0x00, 0x00, 0x00, 0x00, 0x00,
   0xf8, 0x03, 0xf0, 0x00, 0xe0, 0xff, 0x0c, 0x01, 0x00, 0x00, 0x00, 0x00,
   0x80, 0xee, 0x03, 0x90, 0x00, 0xe0, 0x7f, 0x52, 0x03, 0x00, 0x00, 0x00,
   0x00, 0x00, 0x7c, 0x03, 0x90, 0x01, 0xe0, 0x07, 0x4a, 0x02, 0x00, 0x00,
   0x00, 0x00, 0x40, 0xed, 0x01, 0x10, 0x01, 0xd0, 0x81, 0x84, 0x03, 0x00,
   0x00, 0x00, 0x00, 0x00, 0xfc, 0x07, 0x10, 0x01, 0xf0, 0x81, 0x1a, 0x06,
   0x00, 0x00, 0x00, 0x00, 0xa0, 0xee, 0x0f, 0xf0, 0x01, 0x58, 0x00, 0x44,
   0x06, 0x00, 0x00, 0x00, 0x00, 0x00, 0x5d, 0x3f, 0x00, 0x00, 0x78, 0x80,
   0x9a, 0x04, 0x00, 0x00, 0x00, 0x00, 0xa0, 0xfe, 0x7d, 0x00, 0x00, 0x2e,
   0x00, 0x44, 0x0e, 0x00, 0x00, 0x00, 0x00, 0x00, 0xba, 0x79, 0x00, 0x00,
   0x2a, 0x80, 0x1d, 0x0c, 0x00, 0x00, 0x00, 0x00, 0x50, 0xef, 0x20, 0x00,
   0x70, 0x01, 0x00, 0x54, 0x1d, 0x00, 0x00, 0x00, 0x00, 0x40, 0xfe, 0x00,
   0x80, 0xf6, 0x40, 0x80, 0x14, 0x18, 0x00, 0x00, 0x00, 0x00, 0x90, 0xbb,
   0x00, 0x80, 0xfb, 0x00, 0x80, 0xac, 0x1a, 0x00, 0x00, 0x00, 0x00, 0x10,
   0xff, 0x00, 0x70, 0xbd, 0x00, 0x80, 0x11, 0x3a, 0x00, 0x00, 0x00, 0x00,
   0x40, 0xfb, 0x00, 0xbc, 0x6e, 0x00, 0x00, 0x55, 0x38, 0x00, 0x00, 0x00,
   0x00, 0x48, 0xef, 0x00, 0x6a, 0x1d, 0x00, 0x80, 0x94, 0x32, 0x00, 0x00,
   0x00, 0x00, 0x90, 0xfb, 0x00, 0xad, 0x36, 0x00, 0x80, 0x48, 0x7c, 0x00,
   0x00, 0x00, 0x00, 0xa0, 0xef, 0x00, 0xf5, 0x16, 0x00, 0x80, 0x91, 0x60,
   0x00, 0x00, 0x00, 0x00, 0xca, 0xfe, 0x80, 0x6e, 0x2b, 0x0b, 0x80, 0x0a,
   0xf5, 0x00, 0x00, 0x00, 0x00, 0xc0, 0xef, 0xa0, 0x5a, 0x75, 0x01, 0x80,
   0x21, 0xd4, 0x00, 0x00, 0x00, 0x00, 0xaa, 0xfd, 0x60, 0xdb, 0x6a, 0x18,
   0x80, 0x94, 0x78, 0x00, 0x00, 0x00, 0x00, 0xc0, 0xef, 0x70, 0xb5, 0xd2,
   0x3e, 0x80, 0x21, 0xe1, 0x00, 0x00, 0x00, 0x00, 0x75, 0xfb, 0x50, 0x5b,
   0xea, 0x7f, 0x80, 0x8a, 0xea, 0x01, 0x00, 0x00, 0x00, 0xe0, 0xef, 0xb0,
   0xda, 0xea, 0x7f, 0x80, 0x11, 0xe9, 0x01, 0x00, 0x00, 0x80, 0x6a, 0xff,
   0x50, 0x35, 0xf9, 0xff, 0x80, 0x44, 0xb2, 0x01, 0x00, 0x00, 0x00, 0xe0,
   0xed, 0xa0, 0x7a, 0xe5, 0xff, 0x80, 0x11, 0xe2, 0x03, 0x00, 0x00, 0x80,
   0xba, 0xff, 0x58, 0x55, 0xf5, 0xff, 0x80, 0xa4, 0x66, 0x01, 0x00, 0x00,
   0x80, 0x60, 0xdb, 0x69, 0x5d, 0xfd, 0xff, 0x81, 0x09, 0xe4, 0x03, 0x00,
   0x00, 0x00, 0xf5, 0x7f, 0x5b, 0xbd, 0xfa, 0xff, 0x41, 0xa4, 0xd6, 0x07,
   0x00, 0x00, 0x40, 0x70, 0x5b, 0xb5, 0xba, 0xfe, 0xff, 0xc3, 0x08, 0xc6,
   0x06, 0x00, 0x00, 0x80, 0xea, 0xaf, 0x5a, 0xcf, 0xff, 0xff, 0x43, 0x51,
   0xec, 0x03, 0x00, 0x00, 0x90, 0xd0, 0x7d, 0x75, 0x1b, 0xff, 0xff, 0xc3,
   0x04, 0x8d, 0x07, 0x00, 0x00, 0x40, 0x7a, 0x5f, 0xb5, 0xcb, 0xfe, 0xff,
   0x47, 0x52, 0xf6, 0x07, 0x00, 0x00, 0xc0, 0xf0, 0xbf, 0xea, 0x95, 0xfe,
   0xff, 0xc7, 0x44, 0x4c, 0x0f, 0x00, 0x00, 0x50, 0x6a, 0x7d, 0xbb, 0x2a,
   0xfd, 0xff, 0x4f, 0x12, 0xed, 0x05, 0x00, 0x00, 0xd0, 0xf0, 0xff, 0xfa,
   0x6a, 0xfd, 0xff, 0x6f, 0x42, 0x9c, 0x0f, 0x00, 0x00, 0x60, 0xea, 0xfa,
   0x7f, 0x95, 0xfa, 0xff, 0xbf, 0x94, 0xd6, 0x07, 0x00, 0x00, 0x70, 0xd0,
   0xff, 0x7f, 0xb5, 0xfe, 0xff, 0xbf, 0x11, 0x5c, 0x0f, 0x00, 0x00, 0x68,
   0x75, 0xeb, 0xff, 0xaa, 0xfa, 0xff, 0xff, 0xa2, 0xee, 0x0f, 0x00, 0x00,
   0x70, 0xc1, 0xff, 0xff, 0xd5, 0xfe, 0xff, 0xff, 0x0a, 0x9c, 0x1e, 0x00,
   0x00, 0x38, 0x74, 0xdb, 0x7f, 0x5f, 0xff, 0xff, 0xff, 0x51, 0xf7, 0x1b,
   0x00, 0x00, 0x78, 0xc2, 0xbf, 0x7f, 0xf2, 0xff, 0xff, 0x7f, 0x03, 0xae,
   0x1f, 0x00, 0x00, 0x68, 0xd4, 0xf6, 0xfe, 0xff, 0xff, 0xff, 0xff, 0x54,
   0xfd, 0x16, 0x00, 0x00, 0xe8, 0xc2, 0xff, 0xfd, 0xff, 0xff, 0xff, 0xef,
   0x01, 0xdb, 0x1f, 0x00, 0x00, 0x38, 0xaa, 0x6d, 0xe9, 0xff, 0xff, 0xff,
   0xff, 0x2a, 0x6f, 0x1f, 0x00, 0x00, 0xf0, 0x84, 0xff, 0xa0, 0xff, 0x6f,
   0xff, 0xd8, 0x41, 0xfe, 0x1b, 0x00, 0x00, 0x50, 0xd6, 0xed, 0xa0, 0xba,
   0x9c, 0x00, 0xce, 0xaa, 0xdb, 0x1e, 0x00, 0x00, 0x70, 0x8a, 0xff, 0x00,
   0x54, 0x95, 0x05, 0xc4, 0x02, 0xff, 0x17, 0x00, 0x00, 0xb8, 0xd6, 0xda,
   0xa1, 0x52, 0xf4, 0x97, 0xe3, 0xa9, 0xad, 0x0d, 0x00, 0x00, 0xf0, 0x8c,
   0xff, 0x60, 0x95, 0xd0, 0x07, 0xc0, 0x83, 0xff, 0x1f, 0x00, 0x00, 0x30,
   0xdd, 0xf6, 0xf0, 0xbf, 0xff, 0x07, 0xc0, 0xaa, 0xdd, 0x07, 0x00, 0x00,
   0xf0, 0x9a, 0xdf, 0xf0, 0xbf, 0xff, 0x07, 0xc0, 0xa3, 0xbb, 0x0f, 0x00,
   0x00, 0xb0, 0x5c, 0xfd, 0xf0, 0xbf, 0xff, 0x07, 0xe0, 0xca, 0xff, 0x07,
   0x00, 0x00, 0xf0, 0x59, 0xf7, 0xf0, 0xbf, 0xff, 0x07, 0xe0, 0x53, 0xfb,
   0x0f, 0x00, 0x00, 0xe0, 0x7a, 0xff, 0xf0, 0xff, 0xff, 0x07, 0xe0, 0xe7,
   0xbf, 0x07, 0x00, 0x00, 0xe0, 0xff, 0xee, 0xf0, 0xbf, 0xff, 0x07, 0x60,
   0xf7, 0x7f, 0x0f, 0x00, 0x00, 0xf0, 0xdb, 0xff, 0xf0, 0xbf, 0xff, 0x07,
   0xe0, 0xff, 0xfe, 0x07, 0x00, 0x00, 0xb0, 0xff, 0xfe, 0xe0, 0xbf, 0xff,
   0x03, 0xe0, 0xef, 0xfb, 0x03, 0x00, 0x00, 0xe0, 0xff, 0xef, 0xe1, 0x3f,
   0xff, 0x03, 0xe0, 0xfe, 0x7f, 0x00, 0x00, 0x00, 0x00, 0xfd, 0x7f, 0xe0,
   0x3f, 0xff, 0x03, 0xf8, 0xff, 0x37, 0x00, 0x00, 0x00, 0x00, 0xd0, 0x09,
   0xe0, 0x1f, 0xff, 0x03, 0xf8, 0xef, 0x07, 0x00, 0x00, 0x00, 0x00, 0x00,
   0x00, 0xe0, 0x1f, 0xfe, 0x01, 0x68, 0xbd, 0x00, 0x00, 0x00, 0x00, 0x00,
   0x00, 0x00, 0xc0, 0x1f, 0xfe, 0x03, 0x00, 0x00, 0x00, 0x00, 0x00, 0x00,
   0x00, 0x00, 0x00, 0xc0, 0x0f, 0xfe, 0x01, 0x00, 0x00, 0x00, 0x00, 0x00,
   0x00, 0x00, 0x00, 0x00, 0xc0, 0x0f, 0xfc, 0x01, 0x00, 0x00, 0x00, 0x00,
   0x00, 0x00, 0x00, 0x00, 0x00, 0xc0, 0x07, 0xfc, 0x01, 0x00, 0x00, 0x00,
   0x00, 0x00, 0x00, 0x00, 0x00, 0x00, 0x80, 0x07, 0xf8, 0x01, 0x00, 0x00,
   0x00, 0x00, 0x00, 0x00, 0x00, 0x00, 0x00, 0x00, 0x00, 0x00, 0x00, 0x00,
   0x00, 0x00, 0x00, 0x00 };
